<svg width="26" height="26" viewBox="0 0 26 26" fill="none" xmlns="http://www.w3.org/2000/svg">
<mask id="mask0_2_21" style="mask-type:alpha" maskUnits="userSpaceOnUse" x="0" y="0" width="26" height="26">
<path d="M22.4627 2.6663L2.5012 12.5021C2.39234 12.5557 2.30068 12.6388 2.23658 12.7418C2.17249 12.8449 2.13852 12.9638 2.13852 13.0851C2.13852 13.2065 2.17249 13.3254 2.23658 13.4285C2.30068 13.5315 2.39234 13.6146 2.5012 13.6682L22.464 23.504C22.5758 23.5589 22.7011 23.5806 22.8249 23.5663C22.9487 23.5521 23.0658 23.5026 23.1622 23.4237C23.2586 23.3448 23.3304 23.2398 23.3688 23.1213C23.4073 23.0028 23.4109 22.8757 23.3792 22.7552L21.4019 15.2867C21.3698 15.1658 21.3036 15.0568 21.2112 14.9726C21.1187 14.8885 21.0039 14.8328 20.8806 14.8122L11.9353 13.3211C11.882 13.3123 11.8317 13.2903 11.7891 13.2572C11.7464 13.224 11.7126 13.1808 11.6909 13.1313L11.6675 13.0533C11.6554 12.981 11.668 12.9067 11.7034 12.8425C11.7388 12.7783 11.7949 12.728 11.8625 12.6997L11.9353 12.6789L20.93 11.18C21.0531 11.1592 21.1676 11.1034 21.2598 11.0192C21.352 10.9351 21.418 10.8262 21.45 10.7055L23.3792 3.4164C23.4112 3.29581 23.4079 3.16855 23.3695 3.04981C23.3312 2.93108 23.2595 2.82588 23.163 2.74679C23.0665 2.6677 22.9493 2.61805 22.8253 2.60378C22.7014 2.5895 22.5759 2.61121 22.464 2.6663H22.4627Z" fill="black"/>
</mask>
<g mask="url(#mask0_2_21)">
<rect y="-2.6" width="28.6" height="27.3" fill="white"/>
</g>
</svg>
