<svg width="25" height="25" viewBox="0 0 25 25" fill="none" xmlns="http://www.w3.org/2000/svg">
<mask id="mask0_2_43" style="mask-type:alpha" maskUnits="userSpaceOnUse" x="0" y="0" width="25" height="25">
<path d="M12.5 22.9167C18.2438 22.9167 22.9167 19.1781 22.9167 14.5833C22.9167 11.5552 20.9406 8.8375 17.7084 7.36042L17.7084 2.08334L12.1459 6.25521C6.56564 6.40209 2.08335 10.0833 2.08335 14.5833C2.08335 19.1781 6.75627 22.9167 12.5 22.9167ZM15.3104 10.4313L17.1844 10.4313V12.3042L12.0011 17.4813L10.1281 15.6073L15.3104 10.4313ZM9.24481 16.4896L11.1188 18.3625L9.6896 19.7906L7.81564 17.9177L9.24481 16.4896Z" fill="black"/>
</mask>
<g mask="url(#mask0_2_43)">
<rect y="-1" width="26" height="27" fill="#040320"/>
</g>
</svg>
